<svg width="23" height="23" viewBox="0 0 23 23" fill="none" xmlns="http://www.w3.org/2000/svg">
<g clip-path="url(#clip0_292_37)">
<path d="M21.6921 9.80062C21.3381 9.53963 20.8921 9.21363 20.8381 9.00063C20.8608 8.58834 20.9785 8.18692 21.1821 7.82769C21.4941 7.1117 21.816 6.36975 21.4581 5.75276C21.1001 5.13577 20.2861 5.03579 19.5031 4.95278C19.0973 4.95006 18.6975 4.85463 18.3342 4.67379C18.1531 4.30921 18.0579 3.90793 18.0562 3.50084C17.9682 2.71787 17.8772 1.90791 17.2562 1.54591C16.6352 1.18391 15.8922 1.50091 15.1763 1.81688C14.8167 2.02036 14.4149 2.13806 14.0024 2.16088C13.7864 2.1029 13.4614 1.66089 13.2024 1.3069C12.7484 0.694931 12.2374 0.000976562 11.4994 0.000976562C10.7615 0.000976562 10.2505 0.694931 9.79949 1.3069C9.53752 1.66187 9.2125 2.10689 8.99951 2.16187C8.58731 2.13702 8.18599 2.01947 7.82558 1.81787C7.10561 1.50087 6.36366 1.18489 5.74869 1.54089C5.13371 1.89689 5.03073 2.71286 4.94271 3.50079C4.93985 3.90648 4.84479 4.30621 4.6647 4.66976C4.30209 4.84802 3.90381 4.94167 3.49977 4.94373C2.71582 5.03171 1.90482 5.12274 1.54385 5.74371C1.18289 6.36469 1.49993 7.10673 1.81591 7.8237C2.02013 8.18411 2.13788 8.58698 2.15991 9.00063C2.10192 9.21663 1.65991 9.54263 1.30593 9.80062C0.693954 10.2506 0 10.7626 0 11.5006C0 12.2385 0.693954 12.7505 1.30696 13.2005C1.66094 13.4615 2.10694 13.7875 2.16094 14.0005C2.13825 14.4128 2.02051 14.8142 1.81694 15.1734C1.50495 15.8894 1.18298 16.6314 1.54095 17.2484C1.89892 17.8653 2.71291 17.9653 3.49588 18.0483C3.9017 18.0511 4.30153 18.1465 4.66484 18.3273C4.84596 18.6919 4.94107 19.0932 4.94285 19.5003C5.03083 20.2832 5.12185 21.0932 5.74283 21.4552C6.3638 21.8172 7.10078 21.4912 7.81775 21.1792C8.18097 20.978 8.58506 20.8617 8.9997 20.8392C9.21569 20.8972 9.54066 21.3392 9.79968 21.6932C10.2506 22.3052 10.7617 22.9992 11.4996 22.9992C12.2376 22.9992 12.7486 22.3052 13.1996 21.6932C13.4615 21.3383 13.7866 20.8932 13.9995 20.8383C14.412 20.8616 14.8136 20.9793 15.1735 21.1823C15.8895 21.4943 16.6314 21.8143 17.2474 21.4592C17.8633 21.1043 17.9653 20.2873 18.0534 19.5033C18.0562 19.0976 18.1513 18.6979 18.3314 18.3344C18.6946 18.1546 19.094 18.0599 19.4993 18.0574C20.2832 17.9694 21.0942 17.8784 21.4552 17.2574C21.8162 16.6364 21.4902 15.8994 21.1792 15.1825C20.9756 14.8202 20.8593 14.4155 20.8392 14.0005C20.8972 13.7845 21.3392 13.4585 21.6932 13.2005C22.3052 12.7496 23.0002 12.2376 23.0002 11.5006C23.0002 10.7636 22.305 10.2506 21.6921 9.80062Z" fill="#4842A8"/>
<path d="M8.49962 14.0005C8.34227 14.0005 8.19406 13.9264 8.09965 13.8005L5.99974 11.0007V13.5005C5.99974 13.7767 5.77588 14.0005 5.49975 14.0005C5.22362 14.0005 4.99976 13.7767 4.99976 13.5005V9.50073C4.99976 9.2246 5.22362 9.00073 5.49975 9.00073C5.6571 9.00073 5.80531 9.07484 5.89972 9.20074L7.99963 12.0006V9.50073C7.99963 9.2246 8.22349 9.00073 8.49962 9.00073C8.77575 9.00073 8.99961 9.2246 8.99961 9.50073V13.5005C8.99947 13.7156 8.86171 13.9065 8.65763 13.9745C8.60672 13.9918 8.55338 14.0005 8.49962 14.0005Z" fill="#FAFAFA"/>
<path d="M12.4994 14.0005H10.4995C10.2234 14.0005 9.99951 13.7767 9.99951 13.5005V9.50073C9.99951 9.2246 10.2234 9.00073 10.4995 9.00073H12.4994C12.7756 9.00073 12.9994 9.2246 12.9994 9.50073C12.9994 9.77686 12.7756 10.0007 12.4994 10.0007H10.9995V13.0006H12.4994C12.7756 13.0006 12.9994 13.2245 12.9994 13.5006C12.9994 13.7767 12.7756 14.0005 12.4994 14.0005Z" fill="#FAFAFA"/>
<path d="M12.4994 12.0005H10.4995C10.2234 12.0005 9.99951 11.7766 9.99951 11.5005C9.99951 11.2244 10.2234 11.0005 10.4995 11.0005H12.4994C12.7756 11.0005 12.9994 11.2244 12.9994 11.5005C12.9994 11.7766 12.7756 12.0005 12.4994 12.0005Z" fill="#FAFAFA"/>
<path d="M17.4993 14.0005C17.2838 14.0008 17.0924 13.863 17.0243 13.6585L16.4994 12.0816L15.9744 13.6585C15.9105 13.8743 15.7048 14.0163 15.4804 13.9995C15.2583 13.9911 15.0685 13.8371 15.0144 13.6215L14.0145 9.62171C13.9476 9.35359 14.1109 9.08206 14.379 9.01522C14.6471 8.94838 14.9186 9.11159 14.9855 9.3797L15.5684 11.7136L16.0254 10.3427C16.1442 10.0806 16.453 9.96449 16.715 10.0833C16.8301 10.1355 16.9222 10.2276 16.9744 10.3427L17.4313 11.7136L18.0143 9.3797C18.0811 9.11159 18.3526 8.94838 18.6208 9.01522C18.8889 9.08206 19.0521 9.35355 18.9853 9.62171L17.9853 13.6215C17.9313 13.8371 17.7414 13.9911 17.5194 13.9995L17.4993 14.0005Z" fill="#FAFAFA"/>
</g>
<defs>
<clipPath id="clip0_292_37">
<rect width="23" height="23" fill="white"/>
</clipPath>
</defs>
</svg>
